<mxfile host="app.diagrams.net" agent="Mozilla/5.0 (Windows NT 10.0; Win64; x64) AppleWebKit/537.36 (KHTML, like Gecko) Chrome/138.0.0.0 Safari/537.36 Edg/138.0.0.0" version="28.0.0">
  <diagram name="Page-1" id="kg8mlxeTkRB_VHLF-1fy">
    <mxGraphModel dx="2374" dy="1323" grid="0" gridSize="10" guides="1" tooltips="1" connect="1" arrows="1" fold="1" page="0" pageScale="1" pageWidth="1100" pageHeight="850" math="0" shadow="0">
      <root>
        <mxCell id="0" />
        <mxCell id="1" parent="0" />
        <mxCell id="NRsHyXrAJbw1xOwW8_Fy-5" style="edgeStyle=none;curved=1;rounded=0;orthogonalLoop=1;jettySize=auto;html=1;entryX=0;entryY=0.5;entryDx=0;entryDy=0;fontSize=12;startSize=8;endSize=8;" edge="1" parent="1" source="NRsHyXrAJbw1xOwW8_Fy-1" target="NRsHyXrAJbw1xOwW8_Fy-2">
          <mxGeometry relative="1" as="geometry" />
        </mxCell>
        <mxCell id="NRsHyXrAJbw1xOwW8_Fy-36" style="edgeStyle=none;curved=1;rounded=0;orthogonalLoop=1;jettySize=auto;html=1;exitX=0.25;exitY=0;exitDx=0;exitDy=0;entryX=0;entryY=0.5;entryDx=0;entryDy=0;fontSize=12;startSize=8;endSize=8;" edge="1" parent="1" source="NRsHyXrAJbw1xOwW8_Fy-1" target="NRsHyXrAJbw1xOwW8_Fy-35">
          <mxGeometry relative="1" as="geometry">
            <Array as="points">
              <mxPoint x="-218" y="-83" />
            </Array>
          </mxGeometry>
        </mxCell>
        <mxCell id="NRsHyXrAJbw1xOwW8_Fy-1" value="New requirements&lt;br&gt;&lt;br&gt;NL req" style="rounded=0;whiteSpace=wrap;html=1;" vertex="1" parent="1">
          <mxGeometry x="-186" y="167" width="120" height="60" as="geometry" />
        </mxCell>
        <mxCell id="NRsHyXrAJbw1xOwW8_Fy-9" style="edgeStyle=none;curved=1;rounded=0;orthogonalLoop=1;jettySize=auto;html=1;fontSize=12;startSize=8;endSize=8;" edge="1" parent="1" source="NRsHyXrAJbw1xOwW8_Fy-2" target="NRsHyXrAJbw1xOwW8_Fy-8">
          <mxGeometry relative="1" as="geometry" />
        </mxCell>
        <mxCell id="NRsHyXrAJbw1xOwW8_Fy-23" style="edgeStyle=none;curved=1;rounded=0;orthogonalLoop=1;jettySize=auto;html=1;fontSize=12;startSize=8;endSize=8;" edge="1" parent="1" source="NRsHyXrAJbw1xOwW8_Fy-2" target="NRsHyXrAJbw1xOwW8_Fy-3">
          <mxGeometry relative="1" as="geometry" />
        </mxCell>
        <mxCell id="NRsHyXrAJbw1xOwW8_Fy-24" style="edgeStyle=none;curved=1;rounded=0;orthogonalLoop=1;jettySize=auto;html=1;exitX=0.25;exitY=1;exitDx=0;exitDy=0;entryX=0;entryY=0.5;entryDx=0;entryDy=0;fontSize=12;startSize=8;endSize=8;" edge="1" parent="1" source="NRsHyXrAJbw1xOwW8_Fy-2" target="NRsHyXrAJbw1xOwW8_Fy-4">
          <mxGeometry relative="1" as="geometry">
            <Array as="points">
              <mxPoint x="-85" y="275" />
            </Array>
          </mxGeometry>
        </mxCell>
        <mxCell id="NRsHyXrAJbw1xOwW8_Fy-29" style="edgeStyle=none;curved=1;rounded=0;orthogonalLoop=1;jettySize=auto;html=1;exitX=0.25;exitY=1;exitDx=0;exitDy=0;entryX=0;entryY=0.5;entryDx=0;entryDy=0;fontSize=12;startSize=8;endSize=8;" edge="1" parent="1" source="NRsHyXrAJbw1xOwW8_Fy-2" target="NRsHyXrAJbw1xOwW8_Fy-28">
          <mxGeometry relative="1" as="geometry">
            <Array as="points">
              <mxPoint x="-250" y="336" />
            </Array>
          </mxGeometry>
        </mxCell>
        <mxCell id="NRsHyXrAJbw1xOwW8_Fy-2" value="Req Docementaion" style="rounded=0;whiteSpace=wrap;html=1;" vertex="1" parent="1">
          <mxGeometry x="48" y="89" width="120" height="60" as="geometry" />
        </mxCell>
        <mxCell id="NRsHyXrAJbw1xOwW8_Fy-10" style="edgeStyle=none;curved=1;rounded=0;orthogonalLoop=1;jettySize=auto;html=1;fontSize=12;startSize=8;endSize=8;entryX=0.5;entryY=0.5;entryDx=0;entryDy=0;entryPerimeter=0;" edge="1" parent="1" source="NRsHyXrAJbw1xOwW8_Fy-3" target="NRsHyXrAJbw1xOwW8_Fy-8">
          <mxGeometry relative="1" as="geometry">
            <mxPoint x="321.60003662109375" y="199.4000244140625" as="targetPoint" />
          </mxGeometry>
        </mxCell>
        <mxCell id="NRsHyXrAJbw1xOwW8_Fy-3" value="functional diag (Module)" style="rounded=0;whiteSpace=wrap;html=1;" vertex="1" parent="1">
          <mxGeometry x="45" y="236" width="120" height="60" as="geometry" />
        </mxCell>
        <mxCell id="NRsHyXrAJbw1xOwW8_Fy-11" style="edgeStyle=none;curved=1;rounded=0;orthogonalLoop=1;jettySize=auto;html=1;fontSize=12;startSize=8;endSize=8;" edge="1" parent="1" source="NRsHyXrAJbw1xOwW8_Fy-4" target="NRsHyXrAJbw1xOwW8_Fy-8">
          <mxGeometry relative="1" as="geometry" />
        </mxCell>
        <mxCell id="NRsHyXrAJbw1xOwW8_Fy-4" value="flow cart diag (file level)" style="rounded=0;whiteSpace=wrap;html=1;" vertex="1" parent="1">
          <mxGeometry x="80" y="343" width="120" height="60" as="geometry" />
        </mxCell>
        <mxCell id="NRsHyXrAJbw1xOwW8_Fy-25" value="" style="edgeStyle=none;curved=1;rounded=0;orthogonalLoop=1;jettySize=auto;html=1;fontSize=12;startSize=8;endSize=8;" edge="1" parent="1" source="NRsHyXrAJbw1xOwW8_Fy-8" target="NRsHyXrAJbw1xOwW8_Fy-14">
          <mxGeometry relative="1" as="geometry" />
        </mxCell>
        <mxCell id="NRsHyXrAJbw1xOwW8_Fy-8" value="Coding + Architect" style="shape=umlActor;verticalLabelPosition=bottom;verticalAlign=top;html=1;outlineConnect=0;" vertex="1" parent="1">
          <mxGeometry x="319" y="174" width="30" height="60" as="geometry" />
        </mxCell>
        <mxCell id="NRsHyXrAJbw1xOwW8_Fy-20" style="edgeStyle=none;curved=1;rounded=0;orthogonalLoop=1;jettySize=auto;html=1;entryX=0.5;entryY=1;entryDx=0;entryDy=0;fontSize=12;startSize=8;endSize=8;" edge="1" parent="1" source="NRsHyXrAJbw1xOwW8_Fy-14" target="NRsHyXrAJbw1xOwW8_Fy-19">
          <mxGeometry relative="1" as="geometry">
            <Array as="points">
              <mxPoint x="734" y="204" />
            </Array>
          </mxGeometry>
        </mxCell>
        <mxCell id="NRsHyXrAJbw1xOwW8_Fy-14" value="Code Generation&amp;nbsp;" style="rounded=0;whiteSpace=wrap;html=1;" vertex="1" parent="1">
          <mxGeometry x="427" y="172" width="120" height="60" as="geometry" />
        </mxCell>
        <mxCell id="NRsHyXrAJbw1xOwW8_Fy-18" style="edgeStyle=none;curved=1;rounded=0;orthogonalLoop=1;jettySize=auto;html=1;fontSize=12;startSize=8;endSize=8;entryX=0.5;entryY=0;entryDx=0;entryDy=0;" edge="1" parent="1" source="NRsHyXrAJbw1xOwW8_Fy-15" target="NRsHyXrAJbw1xOwW8_Fy-19">
          <mxGeometry relative="1" as="geometry">
            <mxPoint x="632.800048828125" y="-10" as="targetPoint" />
            <Array as="points">
              <mxPoint x="482" y="-37" />
            </Array>
          </mxGeometry>
        </mxCell>
        <mxCell id="NRsHyXrAJbw1xOwW8_Fy-15" value="Test files" style="rounded=0;whiteSpace=wrap;html=1;" vertex="1" parent="1">
          <mxGeometry x="45" y="-40" width="120" height="60" as="geometry" />
        </mxCell>
        <mxCell id="NRsHyXrAJbw1xOwW8_Fy-17" value="" style="edgeStyle=none;curved=1;rounded=0;orthogonalLoop=1;jettySize=auto;html=1;fontSize=12;startSize=8;endSize=8;" edge="1" parent="1" source="NRsHyXrAJbw1xOwW8_Fy-1" target="NRsHyXrAJbw1xOwW8_Fy-15">
          <mxGeometry relative="1" as="geometry">
            <mxPoint x="-93" y="167" as="sourcePoint" />
            <mxPoint x="72" y="20" as="targetPoint" />
            <Array as="points">
              <mxPoint x="-164" y="-29" />
            </Array>
          </mxGeometry>
        </mxCell>
        <mxCell id="NRsHyXrAJbw1xOwW8_Fy-22" value="" style="edgeStyle=none;curved=1;rounded=0;orthogonalLoop=1;jettySize=auto;html=1;fontSize=12;startSize=8;endSize=8;" edge="1" parent="1" source="NRsHyXrAJbw1xOwW8_Fy-19" target="NRsHyXrAJbw1xOwW8_Fy-21">
          <mxGeometry relative="1" as="geometry" />
        </mxCell>
        <mxCell id="NRsHyXrAJbw1xOwW8_Fy-27" value="" style="edgeStyle=none;curved=1;rounded=0;orthogonalLoop=1;jettySize=auto;html=1;fontSize=12;startSize=8;endSize=8;" edge="1" parent="1" source="NRsHyXrAJbw1xOwW8_Fy-19" target="NRsHyXrAJbw1xOwW8_Fy-26">
          <mxGeometry relative="1" as="geometry" />
        </mxCell>
        <mxCell id="NRsHyXrAJbw1xOwW8_Fy-19" value="Testing" style="rounded=0;whiteSpace=wrap;html=1;" vertex="1" parent="1">
          <mxGeometry x="668" y="68" width="120" height="60" as="geometry" />
        </mxCell>
        <mxCell id="NRsHyXrAJbw1xOwW8_Fy-21" value="Report" style="rounded=0;whiteSpace=wrap;html=1;" vertex="1" parent="1">
          <mxGeometry x="822" y="-98" width="120" height="60" as="geometry" />
        </mxCell>
        <mxCell id="NRsHyXrAJbw1xOwW8_Fy-26" value="Integration and Deployment" style="rounded=0;whiteSpace=wrap;html=1;" vertex="1" parent="1">
          <mxGeometry x="908" y="68" width="120" height="60" as="geometry" />
        </mxCell>
        <mxCell id="NRsHyXrAJbw1xOwW8_Fy-28" value="Block diagram (Component)&amp;nbsp;" style="rounded=0;whiteSpace=wrap;html=1;" vertex="1" parent="1">
          <mxGeometry x="65" y="487" width="120" height="60" as="geometry" />
        </mxCell>
        <mxCell id="NRsHyXrAJbw1xOwW8_Fy-30" style="edgeStyle=none;curved=1;rounded=0;orthogonalLoop=1;jettySize=auto;html=1;entryX=0.5;entryY=0.5;entryDx=0;entryDy=0;entryPerimeter=0;fontSize=12;startSize=8;endSize=8;" edge="1" parent="1" source="NRsHyXrAJbw1xOwW8_Fy-28" target="NRsHyXrAJbw1xOwW8_Fy-8">
          <mxGeometry relative="1" as="geometry" />
        </mxCell>
        <mxCell id="NRsHyXrAJbw1xOwW8_Fy-31" value="Reasoning LLM models" style="text;html=1;align=center;verticalAlign=middle;resizable=0;points=[];autosize=1;strokeColor=none;fillColor=none;fontSize=16;" vertex="1" parent="1">
          <mxGeometry x="12.5" y="46.5" width="186" height="31" as="geometry" />
        </mxCell>
        <mxCell id="NRsHyXrAJbw1xOwW8_Fy-32" value="Tester" style="shape=umlActor;verticalLabelPosition=bottom;verticalAlign=top;html=1;outlineConnect=0;" vertex="1" parent="1">
          <mxGeometry x="297" y="-100" width="30" height="60" as="geometry" />
        </mxCell>
        <mxCell id="NRsHyXrAJbw1xOwW8_Fy-37" style="edgeStyle=none;curved=1;rounded=0;orthogonalLoop=1;jettySize=auto;html=1;fontSize=12;startSize=8;endSize=8;" edge="1" parent="1" source="NRsHyXrAJbw1xOwW8_Fy-35" target="NRsHyXrAJbw1xOwW8_Fy-15">
          <mxGeometry relative="1" as="geometry" />
        </mxCell>
        <mxCell id="NRsHyXrAJbw1xOwW8_Fy-35" value="Usecase diagrams" style="rounded=0;whiteSpace=wrap;html=1;" vertex="1" parent="1">
          <mxGeometry x="-46" y="-220" width="120" height="60" as="geometry" />
        </mxCell>
        <mxCell id="NRsHyXrAJbw1xOwW8_Fy-43" style="edgeStyle=none;curved=1;rounded=0;orthogonalLoop=1;jettySize=auto;html=1;entryX=0;entryY=0.75;entryDx=0;entryDy=0;fontSize=12;startSize=8;endSize=8;" edge="1" parent="1" source="NRsHyXrAJbw1xOwW8_Fy-39" target="NRsHyXrAJbw1xOwW8_Fy-1">
          <mxGeometry relative="1" as="geometry" />
        </mxCell>
        <mxCell id="NRsHyXrAJbw1xOwW8_Fy-39" value="SWPM" style="shape=umlActor;verticalLabelPosition=bottom;verticalAlign=top;html=1;outlineConnect=0;" vertex="1" parent="1">
          <mxGeometry x="-360" y="190" width="30" height="60" as="geometry" />
        </mxCell>
        <mxCell id="NRsHyXrAJbw1xOwW8_Fy-42" style="edgeStyle=none;curved=1;rounded=0;orthogonalLoop=1;jettySize=auto;html=1;fontSize=12;startSize=8;endSize=8;" edge="1" parent="1" source="NRsHyXrAJbw1xOwW8_Fy-40" target="NRsHyXrAJbw1xOwW8_Fy-39">
          <mxGeometry relative="1" as="geometry" />
        </mxCell>
        <mxCell id="NRsHyXrAJbw1xOwW8_Fy-40" value="CPM" style="shape=umlActor;verticalLabelPosition=bottom;verticalAlign=top;html=1;outlineConnect=0;" vertex="1" parent="1">
          <mxGeometry x="-603" y="196" width="30" height="60" as="geometry" />
        </mxCell>
      </root>
    </mxGraphModel>
  </diagram>
</mxfile>
